<?xml version="1.0" encoding="utf-8"?>
<!-- Generator: Adobe Illustrator 19.2.1, SVG Export Plug-In . SVG Version: 6.00 Build 0)  -->
<svg version="1.1" id="layer" xmlns="http://www.w3.org/2000/svg" xmlns:xlink="http://www.w3.org/1999/xlink" x="0px" y="0px"
	 viewBox="0 0 652 652" style="enable-background:new 0 0 652 652;" xml:space="preserve">
<path d="M34.3,327.8v18.9h1.8v0.9H25.4v-0.9h1.8v-39.5h-1.8v-0.9h12.6c0.9,0,4.1-0.2,5.9,0.9c2,1.2,2.5,3,2.5,5v9.8
	c0,1.1-0.2,2.8-2.1,4.3c-1.8,1.2-5,1.4-7.5,1.4h-2.5V327.8z M39.3,310c0-0.7,0-1.4-0.4-2c-0.7-0.7-1.4-0.9-2.5-0.9h-2.1v19.8H37
	c0.9,0,1.4-0.4,2-0.7c0.5-0.5,0.4-1.6,0.4-2.1C39.3,324.1,39.3,310,39.3,310z"/>
<path d="M100.4,341.5c0,3.7-2.5,6.2-9.1,6.1c-7.1,0-8.9-2.3-8.9-6.1v-25.1c0-4.5,3.2-6.8,9.3-6.8c5.9,0,8.9,2.8,8.9,6.8v25.1H100.4z
	 M94,313.2c0-2.1-0.7-2.8-2.3-2.8c-1.8,0-2.7,0.7-2.7,2.8V344c0,1.6,0.5,2.8,2.5,2.8s2.7-0.7,2.7-2.8v-30.8H94z"/>
<path d="M157.9,310.4v7.5H157v-5.7h-5.5v34.7h1.6v0.9h-9.6v-0.9h1.6v-34.7h-5.5v5.9h-0.9v-7.7H157.9z"/>
<path d="M215.4,310.4v7.5h-0.9v-5.7H209v34.7h1.6v0.9H201v-0.9h1.6v-34.7h-5.5v5.9h-0.9v-7.7H215.4z"/>
<path d="M261.3,327.8h7.1v-3.2h0.9v8.2h-0.9v-3.2h-7.1v16.6h7.1v-5.7h0.9v7.3h-16v-0.9h1.6v-35.6h-1.6v-0.9h16.2v7.3h-0.9v-5.5h-7.1
	v15.7H261.3z"/>
<path d="M321.9,328.5c0,0.2,2.3,0.4,4.1,1.6c1.6,1.1,1.8,2.3,1.8,3.9v12.6h1.6v0.9h-8v-15c0-1.2,0.4-2.3-0.9-3
	c-0.7-0.5-2-0.4-2.8-0.4h-2.1v17.4h1.6v0.9h-9.6v-0.9h1.6v-35.6h-1.6v-0.7h11.4c0.7,0,3.7-0.2,5.3,0.9c1.8,1.1,2.3,2.7,2.3,4.6v8
	c0,0.4,0.2,2.1-1.2,3.4C323.6,328.3,321.9,328.5,321.9,328.5z M319.9,313.7c0-0.7,0.2-1.2-0.4-1.8c-0.5-0.5-1.4-0.7-2-0.7h-2v17.4
	h2.3c0.7,0,1.2-0.2,1.8-0.7c0.5-0.5,0.4-1.4,0.4-2v-12.3H319.9z"/>
<path d="M370.8,334.4l-6.8-23.1h-1.6v-0.9h9.6v0.9h-1.6l5.7,19.6l5-19.6h-1.4v-0.9h5.3v0.9h-1.6l-6.1,23.1v12.5h1.6v0.9h-9.6v-0.9
	h1.6v-12.5H370.8z"/>
<path d="M445.4,332.3v9.3c0,1.6,0,2.7-1.2,4.1c-1.6,1.8-4.8,2-6.2,2h-15.5v-0.9h1.8v-39.5h-1.8v-0.9h15c1.8,0,3.2,0.4,4.6,1.4
	c2.3,1.8,2.1,3.9,2.1,3.9v10c0,0,0,2-1.4,3.2c-2,1.6-3.4,1.6-3.4,1.8c0,0.4,2.7,0.2,4.6,2C444.9,329.4,445.4,330.5,445.4,332.3z
	 M431.4,346.7h3.9c0.2,0,1.4,0,2.1-0.5s0.9-1.2,0.9-2v-14.6c0-0.5,0-1.1-0.4-1.6c-0.4-0.5-1.2-0.7-2-0.7h-4.6V346.7z M431.4,307.1
	v19.1h3.7c0.2,0,0.9,0,1.4-0.5c0.4-0.5,0.4-1.1,0.4-1.6v-14.4c0-0.2,0.2-1.6-0.4-2c-0.4-0.5-2-0.5-2.1-0.5
	C434.4,307.1,431.4,307.1,431.4,307.1z"/>
<path d="M493.5,311.2h-1.6v-0.9h10v0.9h-1.8l6.4,35.6h1.6v0.9h-9.8v-0.9h1.4l-1.6-10.3h-8l-2.1,10.3h1.6v0.9h-5v-0.9h1.4
	L493.5,311.2z M490.5,334.9h7.3l-3.4-20.3L490.5,334.9z"/>
<path d="M560.4,328.5c0,0.2,2.3,0.4,4.1,1.6c1.6,1.1,1.8,2.3,1.8,3.9v12.6h1.6v0.9h-8v-15c0-1.2,0.4-2.3-0.9-3
	c-0.7-0.5-2-0.4-2.8-0.4H554v17.4h1.6v0.9H546v-0.9h1.6v-35.6H546v-0.7h11.4c0.7,0,3.7-0.2,5.3,0.9c1.8,1.1,2.3,2.7,2.3,4.6v8
	c0,0.4,0.2,2.1-1.2,3.4C562.2,328.3,560.4,328.5,560.4,328.5z M558.3,313.7c0-0.7,0.2-1.2-0.4-1.8c-0.5-0.5-1.4-0.7-2-0.7h-2v17.4
	h2.3c0.7,0,1.2-0.2,1.8-0.7c0.5-0.5,0.4-1.4,0.4-2v-12.3H558.3z"/>
<path d="M617.2,347.7l-7.8-31v30.1h1.6v0.9h-5.2v-0.9h1.6v-35.6h-1.6v-0.9h8l8.2,32.2v-31.3h-1.6v-0.9h5v0.9h-1.6v36.5H617.2z"/>
</svg>
