<?xml version="1.0" encoding="utf-8"?>
<!-- Generator: Adobe Illustrator 16.0.4, SVG Export Plug-In . SVG Version: 6.00 Build 0)  -->
<!DOCTYPE svg PUBLIC "-//W3C//DTD SVG 1.1//EN" "http://www.w3.org/Graphics/SVG/1.1/DTD/svg11.dtd">
<svg version="1.1" id="Layer_1" xmlns="http://www.w3.org/2000/svg" xmlns:xlink="http://www.w3.org/1999/xlink" x="0px" y="0px"
	 width="400px" height="400px" viewBox="-100 -100 400 400" enable-background="new -100 -100 400 400" xml:space="preserve">
<title>logo</title>
<g>
	<path fill="#231F20" d="M37.869,56.245c-0.368,0.024-0.729,0.098-1.078,0.217c-0.399,0.125-0.781,0.297-1.139,0.513
		c-0.405,0.249-0.763,0.569-1.052,0.948c-0.312,0.451-0.548,0.95-0.696,1.478c-0.881,2.87-1.907,6.221-3.078,10.053
		c-1.171,3.832-2.432,7.928-3.782,12.287h-1.739l-6.652-20.408L11.713,81.74h-1.644L6.244,68.158l-2.609-9.401
		c-0.113-0.366-0.29-0.71-0.522-1.017c-0.242-0.314-0.536-0.585-0.869-0.8c-0.34-0.224-0.717-0.386-1.113-0.478
		c-0.37-0.105-0.749-0.178-1.13-0.217v-1.322h10.783v1.322c-0.806,0.033-1.608,0.127-2.4,0.278c-0.667,0.133-1,0.362-1,0.687
		c0.003,0.167,0.02,0.333,0.052,0.495c0,0.201,0.07,0.366,0.095,0.497c0.285,1.096,0.789,2.904,1.514,5.426
		c0.725,2.522,1.802,6.29,3.235,11.304l6.591-19.634h1.827l6.661,20.078c0.898-3.102,1.669-5.8,2.312-8.095
		c0.644-2.296,1.188-4.272,1.635-5.931c0.301-1.159,0.487-1.954,0.556-2.382c0.069-0.361,0.106-0.728,0.113-1.096
		c-0.056-0.494-0.396-0.91-0.869-1.061c-0.893-0.354-1.841-0.548-2.801-0.574v-1.313h9.565V56.245L37.869,56.245z"/>
	<path fill="#231F20" d="M51.46,81.366H39.547v-1.322L41,79.923c0.458-0.018,0.91-0.094,1.348-0.226
		c0.35-0.127,0.653-0.358,0.87-0.661c0.197-0.352,0.288-0.754,0.261-1.157V58.75c0.013-0.375-0.055-0.75-0.2-1.096
		c-0.217-0.359-0.562-0.623-0.965-0.739c-0.448-0.164-0.907-0.294-1.374-0.391c-0.457-0.114-0.922-0.192-1.391-0.235v-1.365H51.46
		v1.322c-0.463,0.02-0.925,0.066-1.383,0.139c-0.468,0.069-0.93,0.175-1.382,0.313c-0.402,0.087-0.75,0.34-0.957,0.695
		c-0.165,0.348-0.249,0.729-0.244,1.113v19.13c-0.008,0.383,0.084,0.761,0.27,1.096c0.213,0.346,0.534,0.612,0.913,0.757
		c0.417,0.142,0.845,0.253,1.278,0.331c0.492,0.106,0.993,0.174,1.496,0.2v1.322l0,0L51.46,81.366z"/>
	<path fill="#231F20" d="M75.921,73.497l-0.556,7.827h-20.67v-1.279L56,79.923c0.409-0.025,0.813-0.107,1.2-0.243
		c0.339-0.136,0.621-0.385,0.8-0.704c0.185-0.373,0.275-0.785,0.261-1.201V58.836c0.007-0.385-0.067-0.767-0.217-1.122
		c-0.179-0.367-0.489-0.653-0.87-0.8c-0.384-0.188-0.786-0.336-1.2-0.443c-0.418-0.125-0.845-0.209-1.279-0.253v-1.295h11.183v1.322
		c-0.454,0.028-0.904,0.092-1.348,0.19c-0.405,0.075-0.806,0.173-1.2,0.296c-0.387,0.117-0.705,0.396-0.869,0.765
		c-0.157,0.365-0.237,0.759-0.235,1.157V76.41c-0.013,0.64,0.027,1.28,0.122,1.913c0.059,0.406,0.258,0.779,0.565,1.052
		c0.38,0.258,0.82,0.411,1.278,0.444c0.789,0.079,1.581,0.114,2.374,0.104c0.458,0,0.936,0,1.435,0
		c0.475-0.022,0.948-0.071,1.417-0.148c0.408-0.067,0.81-0.168,1.2-0.304c0.304-0.096,0.579-0.267,0.8-0.495
		c0.675-0.812,1.272-1.686,1.783-2.609c0.549-0.9,1.02-1.846,1.409-2.826h1.312V73.497z"/>
	<path fill="#231F20" d="M99.46,73.497l-0.557,7.827H78.26v-1.279l1.295-0.13c0.409-0.026,0.813-0.108,1.2-0.244
		c0.339-0.136,0.622-0.385,0.8-0.704c0.16-0.381,0.222-0.797,0.182-1.209V58.836c0.007-0.385-0.067-0.767-0.217-1.122
		c-0.179-0.366-0.489-0.652-0.87-0.8c-0.384-0.188-0.786-0.336-1.2-0.443c-0.389-0.119-0.787-0.204-1.191-0.253v-1.295h11.166v1.322
		c-0.454,0.028-0.905,0.092-1.348,0.19c-0.406,0.075-0.807,0.173-1.2,0.296c-0.388,0.117-0.705,0.396-0.869,0.765
		c-0.157,0.365-0.238,0.759-0.235,1.157V76.41c-0.013,0.64,0.027,1.28,0.121,1.913c0.059,0.406,0.259,0.779,0.566,1.052
		c0.379,0.258,0.82,0.411,1.278,0.444c0.789,0.079,1.581,0.114,2.374,0.104c0.458,0,0.936,0,1.435,0
		c0.476-0.022,0.948-0.071,1.417-0.148c0.408-0.067,0.81-0.168,1.2-0.304c0.304-0.096,0.579-0.266,0.8-0.495
		c0.66-0.813,1.243-1.687,1.739-2.609c0.549-0.9,1.021-1.846,1.409-2.826h1.33L99.46,73.497z"/>
	<path fill="#231F20" d="M113.503,81.366h-11.904v-1.322l1.453-0.113c0.457-0.018,0.91-0.093,1.348-0.227
		c0.35-0.127,0.652-0.357,0.869-0.661c0.205-0.353,0.301-0.758,0.278-1.165V58.75c0.013-0.375-0.056-0.75-0.2-1.096
		c-0.217-0.359-0.563-0.623-0.965-0.739c-0.453-0.165-0.919-0.295-1.392-0.391c-0.456-0.12-0.922-0.204-1.392-0.252v-1.348h11.904
		v1.322c-0.463,0.02-0.924,0.066-1.383,0.139c-0.473,0.066-0.941,0.167-1.4,0.304c-0.404,0.098-0.748,0.364-0.947,0.731
		c-0.152,0.353-0.226,0.736-0.208,1.122v19.13c-0.009,0.382,0.085,0.761,0.27,1.096c0.216,0.347,0.54,0.612,0.921,0.757
		c0.418,0.142,0.846,0.252,1.279,0.33c0.492,0.107,0.991,0.174,1.495,0.201v1.321l0,0L113.503,81.366z"/>
	<path fill="#231F20" d="M143.572,81.366h-10.991v-1.322c0.812-0.039,1.615-0.164,2.4-0.374c0.638-0.185,0.957-0.415,0.957-0.687
		c0.009-0.133,0.009-0.267,0-0.4c-0.022-0.146-0.062-0.288-0.113-0.425l-2.227-5.983h-9.253c-0.348,0.87-0.637,1.626-0.868,2.27
		c-0.232,0.643-0.43,1.24-0.592,1.791c-0.137,0.428-0.249,0.864-0.339,1.304c-0.055,0.264-0.087,0.531-0.096,0.8
		c0.091,0.603,0.568,1.074,1.174,1.156c0.842,0.285,1.721,0.448,2.608,0.487v1.322h-9.895v-1.261
		c0.404-0.041,0.806-0.114,1.199-0.217c0.424-0.092,0.829-0.254,1.2-0.478c0.444-0.294,0.835-0.662,1.156-1.087
		c0.329-0.471,0.599-0.982,0.8-1.521c1.334-3.316,2.8-7.049,4.399-11.2s3.03-7.829,4.288-11.035h1.495l8.8,22.799
		c0.152,0.421,0.366,0.817,0.635,1.174c0.284,0.338,0.619,0.631,0.991,0.87c0.348,0.198,0.724,0.344,1.114,0.435
		c0.377,0.106,0.764,0.174,1.155,0.2v1.322V81.366z M132.938,70.567l-3.999-10.261l-3.948,10.261H132.938z"/>
	<path fill="#231F20" d="M178.65,81.366h-11.695v-1.322c0.547-0.008,1.093-0.052,1.635-0.13c0.473-0.025,0.938-0.131,1.373-0.313
		c0.352-0.191,0.651-0.466,0.87-0.8c0.191-0.351,0.285-0.748,0.27-1.147V58.401h-0.287l-9.033,22.539h-0.915l-8.607-23.017h-0.262
		v15.8c-0.033,1.166,0.063,2.333,0.288,3.479c0.104,0.654,0.408,1.262,0.869,1.739c0.517,0.375,1.11,0.631,1.738,0.748
		c0.548,0.172,1.11,0.296,1.679,0.374v1.322h-10.678v-1.34c0.585-0.055,1.166-0.147,1.738-0.278
		c0.518-0.093,1.004-0.304,1.427-0.617c0.465-0.418,0.771-0.983,0.869-1.6c0.197-1.189,0.278-2.395,0.243-3.6V60.401
		c0.022-0.652-0.072-1.302-0.278-1.921c-0.165-0.459-0.439-0.872-0.799-1.2c-0.398-0.348-0.867-0.606-1.374-0.756
		c-0.532-0.153-1.081-0.244-1.635-0.27v-1.33h9.018l7.548,19.861l6.46-16.609c0.238-0.625,0.44-1.263,0.601-1.913
		c0.128-0.436,0.224-0.88,0.286-1.331h8.626v1.313c-0.446,0.024-0.892,0.079-1.33,0.165c-0.406,0.064-0.808,0.158-1.2,0.278
		c-0.386,0.11-0.703,0.383-0.868,0.748c-0.153,0.36-0.23,0.748-0.228,1.139v19.069c-0.008,0.375,0.069,0.747,0.228,1.087
		c0.196,0.352,0.502,0.632,0.868,0.8c0.382,0.173,0.785,0.291,1.2,0.349c0.447,0.088,0.901,0.146,1.356,0.174v1.321l0,0V81.366z"/>
	<path fill="#231F20" d="M198.354,69.236c0.547,0.601,0.97,1.304,1.243,2.069c0.285,0.84,0.42,1.722,0.4,2.608
		c0.047,2.22-0.912,4.343-2.609,5.774c-1.778,1.543-4.071,2.362-6.426,2.296c-1.2-0.003-2.394-0.188-3.539-0.548
		c-1.065-0.323-2.087-0.775-3.043-1.348l-0.8,1.356h-1.496l-0.26-9.121h1.503c0.283,1.036,0.65,2.048,1.096,3.026
		c0.428,0.916,0.984,1.764,1.653,2.521c0.634,0.72,1.401,1.31,2.261,1.739c0.938,0.451,1.968,0.675,3.008,0.652
		c0.765,0.015,1.526-0.1,2.252-0.339c1.153-0.36,2.062-1.253,2.443-2.4c0.202-0.617,0.299-1.264,0.287-1.913
		c0.009-1.05-0.292-2.078-0.869-2.956c-0.648-0.954-1.578-1.681-2.661-2.079c-0.8-0.319-1.724-0.675-2.773-1.069
		c-1.05-0.395-1.951-0.762-2.704-1.105c-1.36-0.563-2.557-1.46-3.479-2.608c-0.873-1.244-1.309-2.743-1.234-4.262
		c-0.003-0.971,0.209-1.931,0.625-2.808c0.418-0.885,1.011-1.678,1.74-2.331c0.746-0.663,1.61-1.179,2.548-1.522
		c0.979-0.365,2.015-0.55,3.06-0.547c1.115-0.019,2.225,0.17,3.271,0.557c0.908,0.352,1.781,0.789,2.608,1.304l0.766-1.27h1.495
		l0.147,8.782h-1.479c-0.256-0.978-0.564-1.941-0.921-2.887c-0.326-0.886-0.774-1.723-1.33-2.486
		c-0.519-0.715-1.187-1.308-1.956-1.739c-0.875-0.454-1.852-0.675-2.836-0.644c-1.114-0.021-2.195,0.387-3.017,1.139
		c-0.81,0.7-1.265,1.723-1.244,2.792c-0.039,1.009,0.241,2.004,0.8,2.844c0.608,0.805,1.414,1.441,2.34,1.843
		c0.874,0.422,1.767,0.799,2.678,1.13c0.875,0.319,1.725,0.658,2.548,1.017c0.73,0.329,1.438,0.704,2.122,1.123
		C197.229,68.21,197.83,68.685,198.354,69.236z"/>
	<path fill="#231F20" d="M39.852,105.923c0.543,0.594,0.966,1.287,1.244,2.043c0.284,0.839,0.42,1.723,0.4,2.609
		c0.047,2.22-0.912,4.342-2.609,5.773c-1.782,1.533-4.075,2.344-6.426,2.27c-1.201-0.002-2.394-0.188-3.539-0.548
		c-1.071-0.313-2.099-0.758-3.062-1.321l-0.791,1.339h-1.496l-0.26-9.052h1.504c0.283,1.036,0.65,2.048,1.096,3.025
		c0.427,0.916,0.983,1.765,1.652,2.521c0.635,0.721,1.402,1.311,2.261,1.74c0.938,0.45,1.968,0.674,3.009,0.652
		c0.764,0.014,1.526-0.102,2.252-0.34c0.59-0.199,1.123-0.537,1.557-0.982c0.393-0.414,0.69-0.911,0.87-1.452
		c0.201-0.617,0.298-1.265,0.286-1.913c0.009-1.05-0.293-2.079-0.869-2.957c-0.647-0.955-1.578-1.682-2.661-2.078
		c-0.817-0.295-1.749-0.638-2.792-1.025c-1.044-0.39-1.942-0.754-2.695-1.096c-1.361-0.563-2.557-1.461-3.479-2.609
		c-0.876-1.242-1.314-2.742-1.243-4.261c-0.005-0.967,0.206-1.924,0.617-2.8c0.418-0.885,1.009-1.678,1.74-2.331
		c0.746-0.663,1.61-1.179,2.547-1.521c0.984-0.367,2.028-0.553,3.079-0.548c1.115-0.019,2.223,0.17,3.269,0.556
		c0.909,0.353,1.782,0.789,2.609,1.305l0.765-1.269h1.496l0.148,8.782h-1.469c-0.256-0.978-0.564-1.941-0.922-2.887
		c-0.326-0.89-0.773-1.729-1.33-2.496c-0.519-0.715-1.186-1.308-1.957-1.739c-0.875-0.454-1.851-0.675-2.835-0.644
		c-1.113-0.023-2.193,0.381-3.017,1.131c-0.807,0.694-1.265,1.709-1.252,2.773c-0.039,1.008,0.242,2.003,0.8,2.844
		c0.604,0.808,1.407,1.446,2.331,1.851c0.873,0.423,1.767,0.8,2.678,1.131c0.876,0.319,1.725,0.659,2.548,1.018
		c0.738,0.319,1.456,0.687,2.148,1.097C38.715,104.896,39.321,105.369,39.852,105.923z"/>
	<path fill="#231F20" d="M65.739,94.784c1.193,1.252,2.125,2.73,2.739,4.347c0.679,1.826,1.015,3.765,0.992,5.714
		c0.025,1.953-0.317,3.895-1.009,5.721c-0.625,1.627-1.579,3.106-2.8,4.349c-1.142,1.183-2.511,2.12-4.026,2.756
		c-3.202,1.317-6.797,1.296-9.982-0.06c-1.513-0.654-2.873-1.618-3.992-2.827c-1.151-1.28-2.038-2.776-2.608-4.399
		c-0.646-1.769-0.971-3.639-0.957-5.522c-0.046-1.953,0.278-3.897,0.957-5.73c0.634-1.615,1.576-3.091,2.774-4.347
		c1.147-1.206,2.533-2.159,4.069-2.8c3.14-1.303,6.668-1.303,9.809,0C63.229,92.625,64.604,93.579,65.739,94.784z M62.965,113.522
		c0.719-1.187,1.234-2.486,1.521-3.844c0.654-3.229,0.635-6.559-0.052-9.782c-0.295-1.371-0.822-2.683-1.557-3.878
		c-0.655-1.024-1.55-1.872-2.608-2.47c-1.083-0.597-2.303-0.897-3.539-0.87c-1.34-0.04-2.662,0.317-3.8,1.026
		c-1.035,0.702-1.89,1.637-2.496,2.73c-0.662,1.201-1.131,2.498-1.391,3.844c-0.308,1.52-0.46,3.067-0.452,4.617
		c-0.015,1.628,0.148,3.252,0.487,4.844c0.29,1.358,0.807,2.657,1.531,3.843c0.625,1.049,1.497,1.93,2.539,2.565
		c1.109,0.638,2.373,0.956,3.652,0.922c1.262,0.019,2.505-0.302,3.6-0.931C61.463,115.501,62.347,114.6,62.965,113.522z"/>
	<path fill="#231F20" d="M97.816,92.949c-0.541,0.046-1.078,0.146-1.6,0.296c-0.541,0.118-1.063,0.314-1.548,0.583
		c-0.515,0.458-0.828,1.103-0.869,1.791c-0.173,1.11-0.251,2.233-0.234,3.357v19.348h-1.653L75.886,96.688v13.635
		c-0.031,1.179,0.065,2.361,0.287,3.521c0.107,0.655,0.41,1.262,0.87,1.739c0.516,0.381,1.11,0.642,1.739,0.766
		c0.568,0.172,1.149,0.297,1.739,0.374v1.321H69.755v-1.304c0.59-0.072,1.171-0.194,1.74-0.365c0.53-0.106,1.037-0.307,1.495-0.591
		c0.465-0.419,0.772-0.983,0.87-1.601c0.2-1.21,0.281-2.436,0.243-3.661v-13c0.001-0.592-0.099-1.181-0.295-1.739
		c-0.155-0.499-0.429-0.953-0.8-1.322c-0.534-0.461-1.151-0.818-1.817-1.052c-0.59-0.251-1.215-0.412-1.853-0.479v-1.305h7.531
		l14.869,20.165V99.209c0.033-1.189-0.066-2.379-0.296-3.547c-0.091-0.634-0.398-1.217-0.87-1.652
		c-0.541-0.315-1.127-0.547-1.739-0.687c-0.586-0.184-1.189-0.309-1.8-0.374v-1.322h10.792v1.322l0,0H97.816z"/>
	<path fill="#231F20" d="M119.26,94.784c1.193,1.252,2.124,2.73,2.739,4.347c0.679,1.828,1.015,3.765,0.991,5.714
		c0.026,1.953-0.317,3.895-1.009,5.721c-0.625,1.627-1.579,3.106-2.8,4.349c-1.142,1.183-2.511,2.12-4.026,2.756
		c-3.181,1.325-6.758,1.325-9.939,0c-1.52-0.667-2.883-1.647-4-2.878c-1.151-1.279-2.038-2.775-2.608-4.4
		c-0.647-1.768-0.971-3.639-0.957-5.521c-0.034-1.96,0.306-3.906,1-5.739c0.634-1.615,1.576-3.091,2.774-4.347
		c1.147-1.206,2.532-2.159,4.069-2.8c3.14-1.303,6.668-1.303,9.809,0C116.801,92.635,118.147,93.588,119.26,94.784z
		 M116.521,113.522c0.719-1.187,1.234-2.486,1.521-3.844c0.654-3.229,0.637-6.559-0.052-9.782c-0.296-1.371-0.821-2.683-1.557-3.878
		c-0.655-1.024-1.551-1.872-2.608-2.47c-1.082-0.597-2.303-0.897-3.539-0.87c-1.34-0.04-2.662,0.317-3.801,1.026
		c-1.055,0.697-1.928,1.636-2.547,2.739c-0.662,1.201-1.132,2.498-1.392,3.844c-0.308,1.52-0.46,3.066-0.452,4.617
		c-0.007,1.625,0.166,3.247,0.514,4.835c0.289,1.358,0.807,2.657,1.529,3.843c0.626,1.049,1.498,1.93,2.539,2.565
		c1.109,0.638,2.373,0.956,3.651,0.922c1.257,0.016,2.495-0.306,3.584-0.931C114.992,115.507,115.891,114.604,116.521,113.522z"/>
	<path fill="#231F20" d="M155.921,118.079h-11.678v-1.33c0.547-0.01,1.092-0.054,1.634-0.132c0.469-0.024,0.931-0.13,1.365-0.312
		c0.351-0.19,0.649-0.466,0.87-0.8c0.191-0.351,0.285-0.748,0.27-1.147V95.123h-0.279l-9.026,22.522h-0.929l-8.583-23h-0.243v15.791
		c-0.025,1.167,0.08,2.334,0.312,3.479c0.104,0.655,0.408,1.263,0.869,1.739c0.518,0.375,1.11,0.631,1.739,0.748
		c0.547,0.171,1.11,0.295,1.678,0.372v1.314h-10.694v-1.331c0.584-0.055,1.165-0.148,1.738-0.277
		c0.516-0.095,1.005-0.305,1.426-0.617c0.464-0.419,0.771-0.983,0.87-1.601c0.197-1.189,0.278-2.396,0.243-3.6v-13.54
		c0.021-0.652-0.073-1.302-0.277-1.921c-0.166-0.459-0.44-0.871-0.802-1.2c-0.41-0.351-0.895-0.606-1.416-0.748
		c-0.542-0.158-1.099-0.251-1.661-0.278v-1.348h9l7.574,19.844l6.479-16.6c0.238-0.625,0.438-1.264,0.599-1.913
		c0.123-0.436,0.214-0.881,0.27-1.331h8.627v1.322c-0.447,0.024-0.893,0.079-1.33,0.166c-0.407,0.064-0.809,0.157-1.201,0.278
		c-0.386,0.11-0.703,0.383-0.868,0.748c-0.152,0.36-0.23,0.748-0.228,1.139v19.062c-0.009,0.377,0.067,0.751,0.228,1.095
		c0.197,0.353,0.502,0.632,0.868,0.8c0.382,0.174,0.785,0.291,1.201,0.348c0.446,0.09,0.901,0.147,1.356,0.174v1.331l0,0V118.079z"
		/>
	<path fill="#231F20" d="M184.859,118.079h-10.948v-1.33c0.812-0.039,1.616-0.165,2.4-0.374c0.638-0.187,0.956-0.415,0.956-0.687
		c0.01-0.134,0.01-0.268,0-0.401c-0.021-0.146-0.059-0.288-0.113-0.426l-2.191-5.93h-9.339c-0.348,0.869-0.637,1.626-0.869,2.27
		c-0.231,0.644-0.428,1.239-0.591,1.791c-0.137,0.429-0.25,0.864-0.34,1.305c-0.054,0.263-0.086,0.53-0.096,0.799
		c0.092,0.604,0.569,1.075,1.175,1.157c0.841,0.283,1.721,0.448,2.608,0.487v1.32h-9.913v-1.32c0.405-0.042,0.806-0.114,1.199-0.218
		c0.424-0.092,0.829-0.255,1.2-0.479c0.441-0.284,0.832-0.64,1.157-1.052c0.327-0.472,0.598-0.983,0.8-1.521
		c1.333-3.315,2.8-7.05,4.4-11.2c1.601-4.151,3.028-7.835,4.287-11.052h1.53l8.8,22.8c0.15,0.421,0.365,0.816,0.635,1.174
		c0.283,0.338,0.617,0.632,0.991,0.869c0.347,0.201,0.722,0.351,1.112,0.443c0.379,0.106,0.767,0.174,1.157,0.2v1.32
		L184.859,118.079z M174.225,107.279l-3.999-10.261l-3.948,10.261H174.225z"/>
	<rect x="36.834" y="128.061" fill="#231F20" width="126.329" height="0.854"/>
	<path fill="#231F20" d="M60.086,139.357c-0.13-0.088-0.252-0.174-0.399-0.261c-0.455-0.307-0.991-0.471-1.539-0.47
		c-0.899,0.003-1.75,0.412-2.313,1.112c-0.369,0.525-0.564,1.151-0.557,1.791c0.003,0.443,0.096,0.881,0.27,1.287
		c0.49,0.989,1.504,1.611,2.609,1.601c0.694-0.025,1.36-0.278,1.896-0.722v1.296c-0.59,0.322-1.25,0.491-1.922,0.494
		c-0.953-0.006-1.874-0.339-2.608-0.947c-0.87-0.753-1.358-1.856-1.331-3.009c-0.009-0.955,0.331-1.883,0.957-2.608
		c0.79-0.835,1.885-1.315,3.035-1.33c0.671,0.03,1.328,0.198,1.931,0.496v1.321L60.086,139.357z"/>
	<path fill="#231F20" d="M71.156,145.384h-1.2l-0.792-1.854h-3.312l-0.87,1.854h-1.217l3.835-8.149L71.156,145.384z M66.312,142.531
		h2.443l-1.182-2.704L66.312,142.531z"/>
	<path fill="#231F20" d="M76.46,137.688v6.659h2.338v1.036h-3.478v-7.695h1.113H76.46z"/>
	<path fill="#231F20" d="M85.564,137.67v7.679h-1.131v-7.679H85.564z"/>
	<path fill="#231F20" d="M95.226,137.679v1.077h-2.661v1.889h2.608v1.026h-2.66v3.694h-1.096v-7.687h3.791H95.226z"/>
	<path fill="#231F20" d="M100.347,138.784c0.76-0.795,1.814-1.242,2.913-1.236c0.923-0.001,1.819,0.307,2.548,0.871
		c0.925,0.755,1.464,1.884,1.47,3.077c-0.003,0.514-0.108,1.024-0.313,1.496c-0.622,1.492-2.087,2.458-3.704,2.442
		c-0.95-0.003-1.871-0.33-2.608-0.931c-0.934-0.769-1.457-1.929-1.417-3.138C99.284,140.398,99.679,139.483,100.347,138.784z
		 M100.981,143.296c1.004,1.238,2.808,1.457,4.078,0.496c0.697-0.542,1.107-1.37,1.113-2.253c-0.003-0.398-0.086-0.791-0.243-1.155
		c-0.639-1.468-2.345-2.138-3.812-1.5c-1.466,0.639-2.137,2.345-1.498,3.812c0.093,0.213,0.211,0.416,0.354,0.601H100.981z"/>
	<path fill="#231F20" d="M115.39,145.365l-2.348-3.278h-0.469v3.297h-1.078v-7.705h2.252c0.516-0.018,1.025,0.122,1.461,0.4
		c0.524,0.422,0.82,1.066,0.8,1.738c0.024,0.757-0.335,1.475-0.956,1.905c-0.217,0.125-0.451,0.217-0.696,0.27
		c0.356,0.512,0.704,1.025,1.078,1.529c0.374,0.505,0.557,0.748,0.869,1.14c0.166,0.226,0.312,0.47,0.469,0.695h-1.382l0,0V145.365z
		 M112.591,138.731v2.4h0.869c0.467,0.043,0.922-0.162,1.199-0.54c0.15-0.239,0.227-0.517,0.219-0.8
		c0.014-0.333-0.123-0.652-0.375-0.87c-0.26-0.162-0.562-0.24-0.869-0.226h-1.069l0,0L112.591,138.731z"/>
	<path fill="#231F20" d="M126.564,137.704h1.122v7.974c-0.87-0.869-1.74-1.737-2.609-2.66c-0.521-0.521-1.036-1.053-1.549-1.6
		c-0.512-0.549-1.052-1.121-1.555-1.739c0,0.374,0.051,0.74,0.061,1.096c0.008,0.357,0,0.652,0,0.982v3.557h-1.166v-8.174
		c1.078,1.069,2.155,2.14,3.2,3.201c0.869,0.869,1.696,1.737,2.522,2.606c0-0.243-0.054-0.494-0.054-0.729c0-0.234,0-0.426,0-0.644
		v-3.886L126.564,137.704z"/>
	<path fill="#231F20" d="M134.295,137.67v7.679h-1.14v-7.679H134.295z"/>
	<path fill="#231F20" d="M145.824,145.384h-1.2l-0.782-1.854h-3.312l-0.871,1.854h-1.198l3.86-8.14L145.824,145.384z
		 M140.98,142.531h2.444l-1.183-2.704L140.98,142.531z"/>
</g>
</svg>
